<?xml version="1.0" standalone="no"?>
<!DOCTYPE svg PUBLIC "-//W3C//DTD SVG 20010904//EN"
 "http://www.w3.org/TR/2001/REC-SVG-20010904/DTD/svg10.dtd">
<svg version="1.0" xmlns="http://www.w3.org/2000/svg"
 width="1062.000000pt" height="1062.000000pt" viewBox="0 0 1062.000000 1062.000000"
 preserveAspectRatio="xMidYMid meet">

<g transform="translate(0.000000,1062.000000) scale(0.100000,-0.100000)"
fill="#000000" stroke="none">
<path d="M6125 5840 c-22 -3 -50 -11 -61 -18 -29 -16 -54 -72 -54 -122 0 -36
6 -48 38 -80 65 -65 161 -62 221 5 26 30 31 44 31 85 0 89 -75 145 -175 130z"/>
<path d="M2040 5757 c0 -2 94 -280 209 -618 114 -338 213 -627 218 -644 9 -30
11 -30 94 -35 46 -3 115 -3 153 0 l70 5 42 125 c23 69 120 352 214 630 95 278
174 513 177 523 5 16 -5 17 -120 17 -88 0 -127 -4 -134 -12 -5 -7 -17 -38 -25
-68 -29 -103 -279 -865 -287 -873 -4 -4 -14 -5 -22 -2 -8 3 -77 198 -169 478
l-156 472 -132 3 c-73 1 -132 1 -132 -1z"/>
<path d="M6693 5646 c-39 -6 -75 -15 -80 -19 -4 -5 -10 -47 -13 -95 l-5 -87
-70 -5 -70 -5 0 -95 0 -95 70 -5 70 -5 6 -275 c7 -279 10 -304 47 -377 54
-106 186 -158 340 -135 101 15 162 39 162 64 0 18 -49 168 -55 168 -1 0 -19
-7 -38 -15 -20 -8 -61 -15 -91 -15 -70 0 -104 26 -117 90 -11 62 -11 443 1
474 l10 26 130 0 130 0 0 100 0 99 -137 3 -138 3 -3 108 -3 107 -37 -1 c-20
-1 -69 -7 -109 -13z"/>
<path d="M5324 5446 c-165 -38 -254 -138 -254 -285 0 -105 65 -198 168 -242
25 -11 101 -34 170 -51 155 -39 184 -59 180 -126 -2 -35 -9 -49 -29 -65 -82
-60 -255 -30 -345 60 -19 19 -40 33 -47 31 -7 -2 -41 -33 -75 -71 -71 -76 -71
-80 -1 -140 106 -91 276 -133 438 -108 185 29 294 141 293 300 -1 167 -85 245
-325 299 -138 32 -187 55 -201 95 -24 68 35 117 139 117 76 0 118 -12 180 -51
l49 -31 63 65 c43 44 61 70 57 81 -10 27 -96 83 -162 105 -81 28 -217 35 -298
17z"/>
<path d="M7644 5445 c-167 -36 -284 -143 -335 -305 -31 -95 -30 -289 1 -380
28 -85 58 -135 115 -191 167 -167 498 -169 675 -3 155 145 191 453 78 666 -91
172 -315 261 -534 213z m221 -214 c52 -24 91 -66 110 -120 21 -60 21 -262 0
-322 -20 -54 -77 -115 -124 -130 -56 -19 -140 -15 -193 9 -89 39 -128 125
-128 285 0 148 41 240 124 278 55 25 157 25 211 0z"/>
<path d="M6035 5428 c-3 -7 -4 -227 -3 -488 l3 -475 114 -3 c64 -1 117 1 120
7 3 5 5 226 3 490 l-2 481 -116 0 c-82 0 -116 -4 -119 -12z"/>
<path d="M8485 5428 c-3 -7 -4 -227 -3 -488 l3 -475 118 -3 c64 -1 117 1 117
5 0 4 1 136 3 293 l2 285 30 60 c48 96 115 127 230 108 33 -6 64 -7 69 -2 5 4
13 32 17 61 4 29 11 74 15 100 6 46 6 47 -22 55 -16 4 -58 8 -94 8 -100 0
-164 -40 -220 -134 -4 -8 -15 -11 -24 -8 -13 5 -16 21 -16 77 l0 70 -110 0
c-79 0 -112 -4 -115 -12z"/>
<path d="M2980 3914 c0 -3 14 -41 32 -85 21 -55 36 -79 46 -77 12 3 72 136 72
161 0 20 -38 -15 -43 -40 -3 -15 -12 -36 -20 -47 -12 -17 -15 -15 -32 30 -17
46 -30 63 -47 64 -5 0 -8 -2 -8 -6z"/>
<path d="M3229 3918 c0 -2 -3 -40 -6 -85 -4 -71 -3 -83 11 -83 13 0 16 13 16
79 0 44 -4 83 -10 86 -5 3 -10 5 -11 3z"/>
<path d="M4317 3913 c-4 -3 -7 -42 -7 -85 0 -63 3 -78 15 -78 12 0 14 8 9 39
-10 65 18 57 40 -11 7 -22 46 -24 46 -2 0 8 6 25 12 37 12 20 13 19 18 -23 3
-31 10 -45 20 -45 12 0 15 15 15 78 0 44 -3 84 -7 90 -13 20 -41 -6 -56 -51
-17 -52 -34 -53 -51 -4 -20 55 -37 73 -54 55z"/>
<path d="M6566 3907 c-30 -22 -17 -67 27 -90 20 -10 37 -23 37 -28 0 -16 -32
-23 -51 -11 -25 16 -39 15 -39 -2 0 -7 14 -19 30 -26 45 -19 80 -1 80 40 0 25
-7 35 -35 52 -41 23 -41 44 -1 40 33 -4 34 15 0 28 -31 12 -27 13 -48 -3z"/>
<path d="M3535 3877 c-9 -45 -2 -133 10 -129 12 3 15 162 4 162 -5 0 -11 -15
-14 -33z"/>
<path d="M7112 3888 c-17 -21 6 -126 30 -139 26 -14 33 -5 16 20 -16 22 -12
91 5 91 5 0 2 9 -8 20 -21 23 -29 25 -43 8z"/>
<path d="M3657 3883 c-9 -15 12 -126 25 -134 31 -20 52 -3 24 20 -8 6 -16 27
-18 46 -3 27 0 36 14 41 10 3 18 9 18 14 0 16 -55 27 -63 13z"/>
<path d="M6254 3879 c-3 -6 -1 -16 5 -22 6 -6 11 -30 11 -54 0 -33 5 -45 21
-54 14 -7 24 -8 31 -1 7 7 3 14 -11 21 -26 14 -29 68 -4 86 9 7 13 17 9 23 -9
15 -53 16 -62 1z"/>
<path d="M4023 3868 c-7 -10 -10 -97 -4 -127 2 -12 26 21 27 37 0 9 1 27 2 40
1 14 11 26 27 32 14 5 25 14 25 20 0 14 -66 12 -77 -2z"/>
<path d="M6730 3876 c0 -2 11 -28 25 -59 21 -44 23 -60 15 -81 -13 -36 -13
-39 6 -28 14 8 74 139 74 162 0 5 -7 7 -15 4 -8 -4 -15 -12 -15 -18 0 -7 -6
-21 -14 -32 -14 -18 -15 -17 -30 19 -9 20 -23 37 -31 37 -8 0 -15 -2 -15 -4z"/>
<path d="M3837 3858 c-51 -18 -46 -100 8 -114 53 -13 100 46 71 90 -18 29 -42
36 -79 24z m53 -33 c20 -24 3 -57 -28 -53 -21 2 -28 9 -30 30 -3 25 3 30 39
37 4 0 12 -6 19 -14z"/>
<path d="M4614 3861 c-10 -7 -34 -71 -34 -89 0 -20 39 -33 75 -26 32 6 35 9
35 43 0 21 -6 44 -12 53 -15 18 -51 29 -64 19z m41 -81 c-3 -5 -13 -10 -21
-10 -8 0 -14 5 -14 10 0 6 9 10 21 10 11 0 17 -4 14 -10z"/>
<path d="M4790 3811 c0 -46 3 -61 14 -61 10 0 16 14 18 43 2 34 7 42 23 42 16
0 21 -8 25 -45 6 -56 24 -59 28 -5 4 52 -13 73 -65 81 l-43 7 0 -62z"/>
<path d="M5580 3804 c0 -48 3 -65 13 -62 6 3 13 24 15 49 2 24 7 48 13 54 16
16 10 25 -16 25 -24 0 -25 -2 -25 -66z"/>
<path d="M6062 3809 c3 -74 21 -85 28 -19 4 37 9 45 25 45 16 0 21 -8 25 -45
6 -56 24 -59 28 -5 4 52 -13 73 -66 81 l-43 7 3 -64z"/>
<path d="M7472 3808 c3 -72 21 -85 26 -18 2 24 8 50 13 56 11 14 1 24 -23 24
-17 0 -19 -7 -16 -62z"/>
<path d="M3357 3853 c-4 -3 -7 -19 -7 -35 0 -23 4 -28 25 -28 14 0 25 -5 25
-11 0 -7 -11 -9 -30 -5 -35 6 -40 -8 -9 -25 16 -8 28 -8 45 0 30 13 31 47 2
62 l-22 12 23 8 c12 5 19 13 16 19 -7 11 -58 14 -68 3z"/>
<path d="M4999 3858 c-1 -2 -3 -12 -5 -23 -2 -11 -6 -32 -10 -47 -8 -34 22
-52 71 -42 32 6 35 9 35 41 0 53 -15 73 -55 73 -19 0 -36 -1 -36 -2z m61 -78
c0 -5 -12 -10 -26 -10 -14 0 -23 4 -19 10 3 6 15 10 26 10 10 0 19 -4 19 -10z"/>
<path d="M5195 3848 c-9 -31 -14 -134 -7 -145 14 -22 67 -27 85 -8 22 21 21
31 -2 54 -16 16 -17 21 -5 33 7 7 16 28 20 46 l7 32 -47 0 c-29 0 -48 -5 -51
-12z m60 -128 c3 -5 -3 -10 -14 -10 -12 0 -21 5 -21 10 0 6 6 10 14 10 8 0 18
-4 21 -10z"/>
<path d="M5384 3835 c-34 -52 15 -112 72 -87 31 15 24 31 -11 24 -15 -2 -25 0
-25 7 0 6 14 11 30 11 25 0 30 4 30 23 0 51 -67 66 -96 22z"/>
<path d="M5653 3803 c2 -44 6 -58 17 -58 11 0 16 14 20 50 4 37 9 51 23 53 14
3 17 -4 17 -47 0 -50 15 -75 30 -51 10 16 1 80 -13 98 -5 6 -29 12 -52 12
l-43 0 1 -57z"/>
<path d="M5866 3844 c-17 -16 -21 -61 -8 -80 18 -28 92 -28 92 0 0 9 -9 12
-24 9 -13 -3 -27 0 -30 6 -5 7 5 11 28 11 32 0 36 3 36 25 0 41 -63 61 -94 29z"/>
<path d="M6940 3840 c-10 -19 0 -59 14 -52 15 6 36 1 36 -9 0 -7 -11 -9 -30
-5 -35 7 -44 -18 -9 -27 59 -16 96 42 42 65 -27 11 -27 12 -5 15 34 6 28 33
-8 33 -19 0 -33 -7 -40 -20z"/>
<path d="M7275 3836 c-34 -52 15 -113 71 -88 31 15 24 31 -11 24 -15 -2 -25 0
-25 7 0 6 13 11 29 11 35 0 45 20 25 49 -21 30 -69 28 -89 -3z"/>
<path d="M7538 3848 c7 -7 12 -31 12 -55 0 -32 4 -43 15 -43 11 0 15 12 15 50
0 43 3 50 20 50 17 0 20 -7 20 -50 0 -38 4 -50 15 -50 11 0 15 11 15 39 0 65
-6 71 -68 71 -44 0 -53 -3 -44 -12z"/>
</g>
</svg>
